<?xml version="1.0" standalone="no"?>
<!DOCTYPE svg PUBLIC "-//W3C//DTD SVG 20010904//EN"
 "http://www.w3.org/TR/2001/REC-SVG-20010904/DTD/svg10.dtd">
<svg version="1.0" xmlns="http://www.w3.org/2000/svg"
 width="512.000000pt" height="512.000000pt" viewBox="0 0 512.000000 512.000000"
 preserveAspectRatio="xMidYMid meet">
<metadata>
Created by potrace 1.14, written by Peter Selinger 2001-2017
</metadata>
<g transform="translate(0.000000,512.000000) scale(0.100000,-0.100000)"
fill="#000000" stroke="none">
<path d="M1643 5105 c0 -8 4 -12 9 -9 5 3 6 10 3 15 -9 13 -12 11 -12 -6z"/>
<path d="M1843 5105 c0 -8 4 -12 9 -9 4 3 8 -2 8 -11 0 -9 -4 -14 -8 -11 -5 3
-9 -1 -9 -9 0 -8 4 -12 9 -9 4 3 8 -2 8 -11 0 -9 -4 -14 -8 -11 -5 3 -9 -1 -9
-9 0 -8 4 -12 9 -9 4 3 8 0 8 -5 0 -6 -4 -11 -8 -11 -4 0 -8 -21 -9 -47 -1
-87 -3 -104 -11 -99 -5 3 -9 -1 -9 -9 0 -8 4 -12 9 -9 4 3 8 0 8 -5 0 -6 -4
-11 -9 -11 -4 0 -8 -8 -8 -17 0 -40 -3 -54 -11 -49 -5 3 -9 -1 -9 -9 0 -8 4
-12 9 -9 4 3 8 0 8 -5 0 -6 -4 -11 -9 -11 -6 0 -8 -8 -7 -17 2 -10 -1 -29 -7
-43 -6 -14 -11 -34 -12 -45 0 -11 -7 -19 -15 -17 -10 2 -11 0 -2 -11 7 -8 8
-17 4 -21 -4 -4 -7 -13 -7 -19 -1 -7 -7 -11 -15 -9 -10 2 -11 0 -2 -11 7 -8 8
-17 4 -21 -4 -4 -7 -13 -7 -19 -1 -7 -7 -11 -15 -9 -11 3 -12 1 -4 -8 9 -9 8
-20 -4 -43 -9 -18 -17 -38 -18 -46 -2 -8 -8 -17 -14 -21 -7 -4 -12 -11 -13
-16 -1 -5 -6 -8 -11 -6 -5 2 -5 -3 1 -10 12 -15 -18 -75 -35 -71 -6 2 -9 -6
-7 -17 2 -11 -4 -27 -13 -37 -9 -9 -17 -19 -17 -22 0 -3 -3 -5 -7 -4 -5 2 -7
-3 -5 -10 1 -6 -4 -11 -12 -9 -11 2 -12 0 -3 -11 15 -17 -3 -36 -30 -32 -10 2
-16 0 -15 -5 1 -4 -2 -8 -6 -8 -5 -1 -16 -9 -25 -19 -9 -10 -29 -26 -44 -36
-16 -10 -28 -24 -28 -32 0 -8 -4 -15 -8 -15 -5 0 -14 -12 -20 -26 -7 -14 -16
-23 -21 -20 -5 4 -7 -2 -4 -12 2 -11 -1 -25 -9 -33 -7 -8 -15 -27 -16 -44 -4
-34 -20 -57 -33 -49 -5 3 -8 0 -7 -8 2 -7 -3 -12 -9 -11 -7 2 -12 -3 -10 -10
1 -6 -4 -11 -10 -10 -7 2 -12 -3 -10 -10 1 -6 -4 -11 -10 -10 -7 2 -12 -3 -10
-10 1 -6 -4 -11 -10 -10 -7 2 -12 -2 -10 -8 1 -6 -7 -16 -17 -22 -11 -7 -35
-26 -54 -44 -20 -18 -42 -30 -53 -28 -10 2 -18 -1 -16 -8 1 -7 -4 -11 -10 -10
-7 2 -12 -2 -10 -8 1 -6 -7 -16 -17 -22 -11 -7 -29 -20 -40 -29 -15 -14 -23
-15 -33 -6 -11 9 -13 8 -11 -3 2 -8 -3 -13 -10 -11 -6 1 -11 -1 -10 -5 2 -5
-1 -9 -5 -10 -4 -1 -14 -9 -22 -17 -9 -8 -24 -13 -35 -11 -11 2 -19 -1 -17 -7
4 -17 -56 -47 -71 -35 -7 6 -12 6 -10 1 2 -5 -1 -10 -6 -11 -5 -1 -12 -6 -16
-13 -4 -6 -13 -12 -21 -14 -8 -1 -28 -9 -46 -18 -23 -12 -34 -13 -43 -4 -9 8
-11 7 -8 -4 2 -8 -2 -14 -9 -15 -6 0 -15 -3 -19 -7 -4 -4 -13 -3 -21 4 -11 9
-13 8 -11 -2 2 -8 -2 -14 -9 -15 -6 0 -15 -3 -19 -7 -4 -4 -13 -3 -21 4 -11 9
-13 8 -11 -2 2 -8 -6 -15 -17 -15 -11 -1 -31 -6 -45 -12 -14 -6 -33 -9 -43 -7
-9 1 -17 -1 -17 -7 0 -5 -5 -9 -11 -9 -5 0 -8 4 -5 8 3 5 -1 9 -9 9 -8 0 -12
-4 -9 -9 5 -8 -9 -11 -48 -11 -10 0 -18 -4 -18 -8 0 -5 -5 -9 -11 -9 -5 0 -8
4 -5 8 3 5 -1 9 -9 9 -8 0 -12 -4 -9 -9 5 -8 -12 -10 -98 -11 -27 -1 -48 -5
-48 -9 0 -4 -5 -8 -11 -8 -5 0 -8 4 -5 8 3 5 -1 9 -9 9 -8 0 -12 -4 -9 -9 3
-4 -2 -8 -11 -8 -9 0 -14 4 -11 8 3 5 -1 9 -9 9 -8 0 -12 -4 -9 -9 3 -4 -2 -8
-11 -8 -9 0 -14 4 -11 8 3 5 -1 9 -9 9 -13 0 -15 -217 -15 -1639 l0 -1638
2560 0 2560 0 0 2560 0 2560 -1638 0 c-1422 0 -1639 -2 -1639 -15z m363 -1098
c4 -4 -140 -7 -319 -7 -180 0 -327 3 -327 8 0 9 637 9 646 -1z m12 -195 l3
-122 -308 2 -308 3 -3 109 c-1 61 0 116 2 123 5 11 64 13 308 11 l303 -3 3
-123z m1002 -302 c23 -5 -25 -8 -138 -9 -101 -1 -171 3 -168 8 7 11 259 12
306 1z m-1602 -7 c-10 -2 -26 -2 -35 0 -10 3 -2 5 17 5 19 0 27 -2 18 -5z
m592 -82 c6 -13 10 -243 10 -676 l0 -656 -32 -32 c-18 -18 -49 -46 -68 -61
-19 -16 -74 -65 -122 -110 -48 -44 -111 -102 -141 -128 l-55 -48 -536 0 -536
0 0 570 0 570 303 -2 302 -3 3 -290 c2 -216 5 -291 15 -297 14 -9 208 -11 231
-2 14 6 16 67 16 588 0 321 3 586 7 589 3 4 138 7 299 7 280 0 294 -1 304 -19z
m1688 -241 c2 -231 1 -256 -15 -267 -13 -10 -106 -13 -385 -13 l-368 0 2 -322
3 -323 369 -3 c255 -1 373 -6 383 -13 11 -10 13 -63 11 -273 l-3 -261 -484 -3
-484 -2 -52 47 c-28 27 -62 57 -76 67 -13 10 -53 46 -89 80 -36 34 -98 89
-138 124 l-72 63 0 493 0 492 87 79 c48 44 102 92 121 107 18 15 72 63 118
107 l85 81 492 -2 492 -3 3 -255z m-2553 -280 c4 -7 -105 -10 -319 -10 l-326
0 -1 -32 -1 -33 -9 30 c-5 17 -7 36 -4 43 6 15 650 18 660 2z"/>
<path d="M1643 5065 c0 -8 4 -12 9 -9 5 3 6 10 3 15 -9 13 -12 11 -12 -6z"/>
<path d="M1643 5025 c0 -8 4 -12 9 -9 5 3 6 10 3 15 -9 13 -12 11 -12 -6z"/>
<path d="M1643 4985 c0 -8 4 -12 9 -9 5 3 6 10 3 15 -9 13 -12 11 -12 -6z"/>
<path d="M1623 4845 c0 -8 4 -12 9 -9 5 3 6 10 3 15 -9 13 -12 11 -12 -6z"/>
<path d="M1603 4785 c0 -6 6 -12 12 -12 6 0 12 6 12 12 0 6 -6 12 -12 12 -6 0
-12 -6 -12 -12z"/>
<path d="M1803 4785 c0 -8 4 -12 9 -9 5 3 6 10 3 15 -9 13 -12 11 -12 -6z"/>
<path d="M1603 4745 c0 -8 4 -12 9 -9 5 3 6 10 3 15 -9 13 -12 11 -12 -6z"/>
<path d="M1563 4623 c0 -9 4 -10 14 -2 7 6 13 12 13 14 0 1 -6 2 -13 2 -8 0
-14 -6 -14 -14z"/>
<path d="M1763 4625 c0 -8 4 -12 9 -9 5 3 6 10 3 15 -9 13 -12 11 -12 -6z"/>
<path d="M1523 4503 c0 -9 4 -10 14 -2 7 6 13 12 13 14 0 1 -6 2 -13 2 -8 0
-14 -6 -14 -14z"/>
<path d="M1723 4503 c0 -9 4 -10 14 -2 7 6 13 12 13 14 0 1 -6 2 -13 2 -8 0
-14 -6 -14 -14z"/>
<path d="M1502 4448 c2 -7 -2 -12 -8 -11 -6 1 -11 -4 -11 -11 0 -7 6 -13 14
-13 7 0 11 3 8 5 -3 3 0 11 6 18 7 8 7 14 -1 19 -6 4 -9 1 -8 -7z"/>
<path d="M1683 4385 c0 -8 4 -12 9 -9 5 3 6 10 3 15 -9 13 -12 11 -12 -6z"/>
<path d="M1463 4366 c1 -6 -3 -10 -9 -9 -6 1 -11 -4 -11 -11 0 -7 6 -13 14
-13 7 0 11 3 8 5 -3 3 2 13 10 22 13 14 13 17 1 17 -8 0 -14 -5 -13 -11z"/>
<path d="M1643 4303 c0 -9 4 -10 14 -2 7 6 13 12 13 14 0 1 -6 2 -13 2 -8 0
-14 -6 -14 -14z"/>
<path d="M1423 4288 c1 -7 -3 -12 -9 -11 -6 1 -11 -5 -11 -13 0 -12 4 -11 18
2 10 9 16 21 13 25 -8 13 -14 11 -11 -3z"/>
<path d="M1603 4225 c0 -8 4 -12 9 -9 5 3 6 10 3 15 -9 13 -12 11 -12 -6z"/>
<path d="M1362 4188 c2 -7 -3 -12 -9 -10 -7 1 -12 -4 -10 -10 1 -7 -3 -12 -9
-11 -6 1 -11 -5 -11 -13 0 -18 -1 -19 31 15 18 19 24 31 17 36 -7 4 -10 1 -9
-7z"/>
<path d="M1283 4105 c0 -6 6 -12 12 -12 6 0 12 6 12 12 0 6 -6 12 -12 12 -6 0
-12 -6 -12 -12z"/>
<path d="M1202 3988 c2 -7 -3 -12 -9 -10 -7 1 -12 -4 -10 -10 1 -7 -4 -12 -10
-10 -7 1 -12 -4 -10 -10 1 -7 -4 -12 -10 -10 -7 1 -12 -4 -10 -10 1 -7 -4 -12
-11 -10 -8 1 -11 -2 -7 -8 8 -14 6 -15 54 34 27 28 39 46 32 51 -7 4 -10 1 -9
-7z"/>
<path d="M1003 3825 c0 -6 6 -12 12 -12 6 0 12 6 12 12 0 6 -6 12 -12 12 -6 0
-12 -6 -12 -12z"/>
<path d="M963 3786 c1 -6 -4 -10 -10 -8 -7 1 -12 -4 -10 -10 1 -7 -4 -12 -11
-10 -8 1 -11 -2 -7 -9 5 -7 17 -1 36 17 34 32 33 31 15 31 -8 0 -14 -5 -13
-11z"/>
<path d="M843 3706 c1 -6 -4 -10 -11 -8 -8 1 -11 -2 -7 -8 5 -8 13 -6 26 6 23
21 23 21 5 21 -8 0 -14 -5 -13 -11z"/>
<path d="M763 3666 c1 -6 -3 -10 -9 -9 -6 1 -11 -5 -11 -13 0 -12 3 -12 17 1
9 8 19 13 22 10 2 -3 5 1 5 8 0 8 -6 14 -13 14 -7 0 -12 -5 -11 -11z"/>
<path d="M1123 3663 c0 -9 4 -10 14 -2 7 6 13 12 13 14 0 1 -6 2 -13 2 -8 0
-14 -6 -14 -14z"/>
<path d="M683 3626 c1 -6 -4 -10 -11 -8 -8 1 -11 -2 -7 -8 5 -8 11 -8 19 -1 7
6 15 9 18 6 2 -3 5 1 5 8 0 8 -6 14 -13 14 -7 0 -12 -5 -11 -11z"/>
<path d="M603 3583 c0 -9 4 -10 14 -2 7 6 13 12 13 14 0 1 -6 2 -13 2 -8 0
-14 -6 -14 -14z"/>
<path d="M483 3543 c0 -9 4 -10 14 -2 7 6 13 12 13 14 0 1 -6 2 -13 2 -8 0
-14 -6 -14 -14z"/>
<path d="M323 3505 c0 -6 6 -12 12 -12 6 0 12 6 12 12 0 6 -6 12 -12 12 -6 0
-12 -6 -12 -12z"/>
<path d="M366 3508 c3 -5 10 -6 15 -3 13 9 11 12 -6 12 -8 0 -12 -4 -9 -9z"/>
<path d="M886 3508 c3 -5 10 -6 15 -3 13 9 11 12 -6 12 -8 0 -12 -4 -9 -9z"/>
<path d="M266 3488 c3 -5 10 -6 15 -3 13 9 11 12 -6 12 -8 0 -12 -4 -9 -9z"/>
<path d="M6 3468 c3 -5 10 -6 15 -3 13 9 11 12 -6 12 -8 0 -12 -4 -9 -9z"/>
<path d="M46 3468 c3 -5 10 -6 15 -3 13 9 11 12 -6 12 -8 0 -12 -4 -9 -9z"/>
<path d="M86 3468 c3 -5 10 -6 15 -3 13 9 11 12 -6 12 -8 0 -12 -4 -9 -9z"/>
<path d="M126 3468 c3 -5 10 -6 15 -3 13 9 11 12 -6 12 -8 0 -12 -4 -9 -9z"/>
<path d="M803 3463 c0 -9 4 -10 14 -2 7 6 13 12 13 14 0 1 -6 2 -13 2 -8 0
-14 -6 -14 -14z"/>
<path d="M726 3428 c3 -5 10 -6 15 -3 13 9 11 12 -6 12 -8 0 -12 -4 -9 -9z"/>
<path d="M603 3383 c0 -9 4 -10 14 -2 7 6 13 12 13 14 0 1 -6 2 -13 2 -8 0
-14 -6 -14 -14z"/>
<path d="M486 3348 c3 -5 10 -6 15 -3 13 9 11 12 -6 12 -8 0 -12 -4 -9 -9z"/>
<path d="M326 3308 c3 -5 10 -6 15 -3 13 9 11 12 -6 12 -8 0 -12 -4 -9 -9z"/>
</g>
</svg>
